<?xml version="1.0" encoding="UTF-8" standalone="yes"?><svg xmlns="http://www.w3.org/2000/svg" xmlns:xlink="http://www.w3.org/1999/xlink" height="567px" style="width:259px;height:567px;" version="1.1" viewBox="0 0 259 567" width="259px"><defs><filter height="300%" id="f1" width="300%" x="-1" y="-1"><feGaussianBlur result="blurOut" stdDeviation="2.0"/><feColorMatrix in="blurOut" result="blurOut2" type="matrix" values="0 0 0 0 0 0 0 0 0 0 0 0 0 0 0 0 0 0 .4 0"/><feOffset dx="4.0" dy="4.0" in="blurOut2" result="blurOut3"/><feBlend in="SourceGraphic" in2="blurOut3" mode="normal"/></filter></defs><g><rect fill="#FFFFFF" filter="url(#f1)" height="90.2031" style="stroke: #000000; stroke-width: 2.0;" width="231" x="13" y="127.5625"/><rect fill="#FFFFFF" height="43.9375" style="stroke: none; stroke-width: 1.0;" width="231" x="13" y="173.8281"/><rect fill="#FFFFFF" filter="url(#f1)" height="90.2031" style="stroke: #000000; stroke-width: 2.0;" width="229.5" x="13" y="274.8984"/><rect fill="#FFFFFF" height="43.9375" style="stroke: none; stroke-width: 1.0;" width="229.5" x="13" y="321.1641"/><rect fill="#FFFFFF" filter="url(#f1)" height="90.2031" style="stroke: #000000; stroke-width: 2.0;" width="229.5" x="13" y="422.2344"/><rect fill="#FFFFFF" height="43.9375" style="stroke: none; stroke-width: 1.0;" width="229.5" x="13" y="468.5"/><line style="stroke: #A80036; stroke-width: 1.0; stroke-dasharray: 5.0,5.0;" x1="62" x2="62" y1="38.2969" y2="529.4375"/><line style="stroke: #A80036; stroke-width: 1.0; stroke-dasharray: 5.0,5.0;" x1="198.5" x2="198.5" y1="38.2969" y2="529.4375"/><rect fill="#FEFECE" filter="url(#f1)" height="30.2969" style="stroke: #A80036; stroke-width: 1.5;" width="74" x="23" y="3"/><text fill="#000000" font-family="sans-serif" font-size="14" lengthAdjust="spacingAndGlyphs" textLength="60" x="30" y="22.9951">Manager</text><rect fill="#FEFECE" filter="url(#f1)" height="30.2969" style="stroke: #A80036; stroke-width: 1.5;" width="74" x="23" y="528.4375"/><text fill="#000000" font-family="sans-serif" font-size="14" lengthAdjust="spacingAndGlyphs" textLength="60" x="30" y="548.4326">Manager</text><rect fill="#FEFECE" filter="url(#f1)" height="30.2969" style="stroke: #A80036; stroke-width: 1.5;" width="63" x="165.5" y="3"/><text fill="#000000" font-family="sans-serif" font-size="14" lengthAdjust="spacingAndGlyphs" textLength="49" x="172.5" y="22.9951">Worker</text><rect fill="#FEFECE" filter="url(#f1)" height="30.2969" style="stroke: #A80036; stroke-width: 1.5;" width="63" x="165.5" y="528.4375"/><text fill="#000000" font-family="sans-serif" font-size="14" lengthAdjust="spacingAndGlyphs" textLength="49" x="172.5" y="548.4326">Worker</text><rect fill="#EEEEEE" filter="url(#f1)" height="3" style="stroke: #EEEEEE; stroke-width: 1.0;" width="251" x="3" y="68.8633"/><line style="stroke: #000000; stroke-width: 1.0;" x1="3" x2="254" y1="68.8633" y2="68.8633"/><line style="stroke: #000000; stroke-width: 1.0;" x1="3" x2="254" y1="71.8633" y2="71.8633"/><rect fill="#EEEEEE" filter="url(#f1)" height="23.1328" style="stroke: #000000; stroke-width: 2.0;" width="207" x="25" y="58.2969"/><text fill="#000000" font-family="sans-serif" font-size="13" font-weight="bold" lengthAdjust="spacingAndGlyphs" textLength="188" x="31" y="74.3638">Announcement &amp; Bidding</text><polygon fill="#A80036" points="187,108.4297,197,112.4297,187,116.4297,191,112.4297" style="stroke: #A80036; stroke-width: 1.0;"/><line style="stroke: #A80036; stroke-width: 1.0;" x1="62" x2="193" y1="112.4297" y2="112.4297"/><text fill="#000000" font-family="sans-serif" font-size="13" lengthAdjust="spacingAndGlyphs" textLength="113" x="69" y="107.4966">tell(taskAvailable)</text><rect fill="none" height="90.2031" style="stroke: #000000; stroke-width: 2.0;" width="231" x="13" y="127.5625"/><polygon fill="#EEEEEE" points="13,127.5625,77,127.5625,77,134.5625,67,144.5625,13,144.5625,13,127.5625" style="stroke: #000000; stroke-width: 2.0;"/><text fill="#000000" font-family="sans-serif" font-size="13" font-weight="bold" lengthAdjust="spacingAndGlyphs" textLength="19" x="28" y="140.6294">alt</text><text fill="#000000" font-family="sans-serif" font-size="11" font-weight="bold" lengthAdjust="spacingAndGlyphs" textLength="147" x="92" y="139.7729">[couldn't achieve goal]</text><polygon fill="#A80036" points="73,161.6953,63,165.6953,73,169.6953,69,165.6953" style="stroke: #A80036; stroke-width: 1.0;"/><line style="stroke: #A80036; stroke-width: 1.0;" x1="67" x2="198" y1="165.6953" y2="165.6953"/><text fill="#000000" font-family="sans-serif" font-size="13" lengthAdjust="spacingAndGlyphs" textLength="69" x="79" y="160.7622">tell(refuse)</text><line style="stroke: #000000; stroke-width: 1.0; stroke-dasharray: 2.0,2.0;" x1="13" x2="244" y1="174.8281" y2="174.8281"/><text fill="#000000" font-family="sans-serif" font-size="11" font-weight="bold" lengthAdjust="spacingAndGlyphs" textLength="174" x="18" y="185.0386">[surely could achieve goal]</text><polygon fill="#A80036" points="73,205.6328,63,209.6328,73,213.6328,69,209.6328" style="stroke: #A80036; stroke-width: 1.0;"/><line style="stroke: #A80036; stroke-width: 1.0;" x1="67" x2="198" y1="209.6328" y2="209.6328"/><text fill="#000000" font-family="sans-serif" font-size="13" lengthAdjust="spacingAndGlyphs" textLength="58" x="79" y="204.6997">tell(offer)</text><rect fill="#EEEEEE" filter="url(#f1)" height="3" style="stroke: #EEEEEE; stroke-width: 1.0;" width="251" x="3" y="245.332"/><line style="stroke: #000000; stroke-width: 1.0;" x1="3" x2="254" y1="245.332" y2="245.332"/><line style="stroke: #000000; stroke-width: 1.0;" x1="3" x2="254" y1="248.332" y2="248.332"/><rect fill="#EEEEEE" filter="url(#f1)" height="23.1328" style="stroke: #000000; stroke-width: 2.0;" width="66" x="95.5" y="234.7656"/><text fill="#000000" font-family="sans-serif" font-size="13" font-weight="bold" lengthAdjust="spacingAndGlyphs" textLength="47" x="101.5" y="250.8325">Award</text><rect fill="none" height="90.2031" style="stroke: #000000; stroke-width: 2.0;" width="229.5" x="13" y="274.8984"/><polygon fill="#EEEEEE" points="13,274.8984,77,274.8984,77,281.8984,67,291.8984,13,291.8984,13,274.8984" style="stroke: #000000; stroke-width: 2.0;"/><text fill="#000000" font-family="sans-serif" font-size="13" font-weight="bold" lengthAdjust="spacingAndGlyphs" textLength="19" x="28" y="287.9653">alt</text><text fill="#000000" font-family="sans-serif" font-size="11" font-weight="bold" lengthAdjust="spacingAndGlyphs" textLength="71" x="92" y="287.1089">[reject bid]</text><polygon fill="#A80036" points="187,309.0313,197,313.0313,187,317.0313,191,313.0313" style="stroke: #A80036; stroke-width: 1.0;"/><line style="stroke: #A80036; stroke-width: 1.0;" x1="62" x2="193" y1="313.0313" y2="313.0313"/><text fill="#000000" font-family="sans-serif" font-size="13" lengthAdjust="spacingAndGlyphs" textLength="65" x="69" y="308.0981">tell(reject)</text><line style="stroke: #000000; stroke-width: 1.0; stroke-dasharray: 2.0,2.0;" x1="13" x2="242.5" y1="322.1641" y2="322.1641"/><text fill="#000000" font-family="sans-serif" font-size="11" font-weight="bold" lengthAdjust="spacingAndGlyphs" textLength="77" x="18" y="332.3745">[accept bid]</text><polygon fill="#A80036" points="187,352.9688,197,356.9688,187,360.9688,191,356.9688" style="stroke: #A80036; stroke-width: 1.0;"/><line style="stroke: #A80036; stroke-width: 1.0;" x1="62" x2="193" y1="356.9688" y2="356.9688"/><text fill="#000000" font-family="sans-serif" font-size="13" lengthAdjust="spacingAndGlyphs" textLength="86" x="69" y="352.0356">achieve(task)</text><rect fill="#EEEEEE" filter="url(#f1)" height="3" style="stroke: #EEEEEE; stroke-width: 1.0;" width="251" x="3" y="392.668"/><line style="stroke: #000000; stroke-width: 1.0;" x1="3" x2="254" y1="392.668" y2="392.668"/><line style="stroke: #000000; stroke-width: 1.0;" x1="3" x2="254" y1="395.668" y2="395.668"/><rect fill="#EEEEEE" filter="url(#f1)" height="23.1328" style="stroke: #000000; stroke-width: 2.0;" width="98" x="79.5" y="382.1016"/><text fill="#000000" font-family="sans-serif" font-size="13" font-weight="bold" lengthAdjust="spacingAndGlyphs" textLength="79" x="85.5" y="398.1685">Expediting</text><rect fill="none" height="90.2031" style="stroke: #000000; stroke-width: 2.0;" width="229.5" x="13" y="422.2344"/><polygon fill="#EEEEEE" points="13,422.2344,77,422.2344,77,429.2344,67,439.2344,13,439.2344,13,422.2344" style="stroke: #000000; stroke-width: 2.0;"/><text fill="#000000" font-family="sans-serif" font-size="13" font-weight="bold" lengthAdjust="spacingAndGlyphs" textLength="19" x="28" y="435.3013">alt</text><text fill="#000000" font-family="sans-serif" font-size="11" font-weight="bold" lengthAdjust="spacingAndGlyphs" textLength="142" x="92" y="434.4448">[failed to achive goal]</text><polygon fill="#A80036" points="73,456.3672,63,460.3672,73,464.3672,69,460.3672" style="stroke: #A80036; stroke-width: 1.0;"/><line style="stroke: #A80036; stroke-width: 1.0;" x1="67" x2="198" y1="460.3672" y2="460.3672"/><text fill="#000000" font-family="sans-serif" font-size="13" lengthAdjust="spacingAndGlyphs" textLength="68" x="79" y="455.4341">tell(failure)</text><line style="stroke: #000000; stroke-width: 1.0; stroke-dasharray: 2.0,2.0;" x1="13" x2="242.5" y1="469.5" y2="469.5"/><text fill="#000000" font-family="sans-serif" font-size="11" font-weight="bold" lengthAdjust="spacingAndGlyphs" textLength="170" x="18" y="479.7104">[successful accomplished]</text><polygon fill="#A80036" points="73,500.3047,63,504.3047,73,508.3047,69,504.3047" style="stroke: #A80036; stroke-width: 1.0;"/><line style="stroke: #A80036; stroke-width: 1.0;" x1="67" x2="198" y1="504.3047" y2="504.3047"/><text fill="#000000" font-family="sans-serif" font-size="13" lengthAdjust="spacingAndGlyphs" textLength="91" x="79" y="499.3716">tell(finishTask)</text></g></svg>