<?xml version="1.0" encoding="UTF-8" standalone="yes"?><svg xmlns="http://www.w3.org/2000/svg" xmlns:xlink="http://www.w3.org/1999/xlink" height="768px" style="width:574px;height:768px;" version="1.1" viewBox="0 0 574 768" width="574px"><defs><filter height="300%" id="f1" width="300%" x="-1" y="-1"><feGaussianBlur result="blurOut" stdDeviation="2.0"/><feColorMatrix in="blurOut" result="blurOut2" type="matrix" values="0 0 0 0 0 0 0 0 0 0 0 0 0 0 0 0 0 0 .4 0"/><feOffset dx="4.0" dy="4.0" in="blurOut2" result="blurOut3"/><feBlend in="SourceGraphic" in2="blurOut3" mode="normal"/></filter></defs><g><ellipse cx="347" cy="18" fill="#000000" filter="url(#f1)" rx="10" ry="10" style="stroke: none; stroke-width: 1.0;"/><rect fill="#FEFECE" filter="url(#f1)" height="33.9688" rx="12.5" ry="12.5" style="stroke: #A80036; stroke-width: 1.5;" width="109" x="292.5" y="69"/><text fill="#000000" font-family="sans-serif" font-size="12" lengthAdjust="spacingAndGlyphs" textLength="89" x="302.5" y="90.1387">Quantify order</text><polygon fill="#FEFECE" filter="url(#f1)" points="347,144,359,156,347,168,335,156,347,144" style="stroke: #A80036; stroke-width: 1.5;"/><rect fill="#FEFECE" filter="url(#f1)" height="33.9688" rx="12.5" ry="12.5" style="stroke: #A80036; stroke-width: 1.5;" width="205" x="118.5" y="225"/><text fill="#000000" font-family="sans-serif" font-size="12" lengthAdjust="spacingAndGlyphs" textLength="185" x="128.5" y="246.1387">collect bearing box form shelf</text><rect fill="#FEFECE" filter="url(#f1)" height="33.9688" rx="12.5" ry="12.5" style="stroke: #A80036; stroke-width: 1.5;" width="223" x="97.5" y="333"/><text fill="#000000" font-family="sans-serif" font-size="12" lengthAdjust="spacingAndGlyphs" textLength="203" x="107.5" y="354.1387">insert box into assembly aid tray</text><rect fill="#FEFECE" filter="url(#f1)" height="33.9688" rx="12.5" ry="12.5" style="stroke: #A80036; stroke-width: 1.5;" width="355" x="30.5" y="441"/><text fill="#000000" font-family="sans-serif" font-size="12" lengthAdjust="spacingAndGlyphs" textLength="335" x="40.5" y="462.1387">load aid tray with bearing box to force fitting machine</text><rect fill="#FEFECE" filter="url(#f1)" height="33.9688" rx="12.5" ry="12.5" style="stroke: #A80036; stroke-width: 1.5;" width="317" x="49.5" y="516"/><text fill="#000000" font-family="sans-serif" font-size="12" lengthAdjust="spacingAndGlyphs" textLength="297" x="59.5" y="537.1387">force fitting of the bearing with the bearing box</text><rect fill="#FEFECE" filter="url(#f1)" height="33.9688" rx="12.5" ry="12.5" style="stroke: #A80036; stroke-width: 1.5;" width="173" x="121.5" y="591"/><text fill="#000000" font-family="sans-serif" font-size="12" lengthAdjust="spacingAndGlyphs" textLength="153" x="131.5" y="612.1387">examine quality of fitting</text><rect fill="#FEFECE" filter="url(#f1)" height="33.9688" rx="12.5" ry="12.5" style="stroke: #A80036; stroke-width: 1.5;" width="404" x="6" y="666"/><text fill="#000000" font-family="sans-serif" font-size="12" lengthAdjust="spacingAndGlyphs" textLength="384" x="16" y="687.1387">transport force fitted bearing and bearing box to delivery box</text><ellipse cx="376" cy="751" fill="none" filter="url(#f1)" rx="10" ry="10" style="stroke: #000000; stroke-width: 1.0;"/><ellipse cx="376.5" cy="751.5" fill="#000000" rx="6" ry="6" style="stroke: none; stroke-width: 1.0;"/><rect fill="#FEFECE" filter="url(#f1)" height="33.9688" rx="12.5" ry="12.5" style="stroke: #A80036; stroke-width: 1.5;" width="205" x="332.5" y="279"/><text fill="#000000" font-family="sans-serif" font-size="12" lengthAdjust="spacingAndGlyphs" textLength="185" x="342.5" y="300.1387">collect bearing box from shelf</text><rect fill="#FEFECE" filter="url(#f1)" height="33.9688" rx="12.5" ry="12.5" style="stroke: #A80036; stroke-width: 1.5;" width="251" x="314.5" y="387"/><text fill="#000000" font-family="sans-serif" font-size="12" lengthAdjust="spacingAndGlyphs" textLength="231" x="324.5" y="408.1387">transport bearing box to delivery box</text><path d="M347,28.177 C347,37.269 347,51.527 347,63.485 " fill="none" style="stroke: #A80036; stroke-width: 1.0;"/><polygon fill="#A80036" points="347,68.791,351,59.791,347,63.791,343,59.791,347,68.791" style="stroke: #A80036; stroke-width: 1.0;"/><path d="M347,103.115 C347,113.916 347,128.082 347,138.883 " fill="none" style="stroke: #A80036; stroke-width: 1.0;"/><polygon fill="#A80036" points="347,143.885,351,134.885,347,138.885,343,134.885,347,143.885" style="stroke: #A80036; stroke-width: 1.0;"/><text fill="#000000" font-family="sans-serif" font-size="13" lengthAdjust="spacingAndGlyphs" textLength="107" x="220.2719" y="133.7434">check order type</text><path d="M338.908,160.233 C326.582,165.32 302.578,175.873 284,188 C268.946,197.827 253.476,210.792 241.633,221.439 " fill="none" style="stroke: #A80036; stroke-width: 1.0;"/><polygon fill="#A80036" points="237.762,224.953,247.1143,221.8654,241.4641,221.5923,241.7372,215.942,237.762,224.953" style="stroke: #A80036; stroke-width: 1.0;"/><text fill="#000000" font-family="sans-serif" font-size="13" lengthAdjust="spacingAndGlyphs" textLength="121" x="285" y="201.0669">force fitted bearing</text><path d="M219.177,259.099 C217.107,277.388 213.719,307.315 211.426,327.567 " fill="none" style="stroke: #A80036; stroke-width: 1.0;"/><polygon fill="#A80036" points="210.84,332.749,215.8276,324.2565,211.4028,327.7808,207.8785,323.3559,210.84,332.749" style="stroke: #A80036; stroke-width: 1.0;"/><path d="M208.848,367.099 C208.676,385.388 208.393,415.315 208.202,435.567 " fill="none" style="stroke: #A80036; stroke-width: 1.0;"/><polygon fill="#A80036" points="208.153,440.749,212.2377,431.7871,208.2002,435.7492,204.2381,431.7117,208.153,440.749" style="stroke: #A80036; stroke-width: 1.0;"/><path d="M208,475.201 C208,485.692 208,499.463 208,510.818 " fill="none" style="stroke: #A80036; stroke-width: 1.0;"/><polygon fill="#A80036" points="208,515.844,212,506.844,208,510.844,204,506.844,208,515.844" style="stroke: #A80036; stroke-width: 1.0;"/><path d="M208,550.201 C208,560.692 208,574.463 208,585.818 " fill="none" style="stroke: #A80036; stroke-width: 1.0;"/><polygon fill="#A80036" points="208,590.844,212,581.844,208,585.844,204,581.844,208,590.844" style="stroke: #A80036; stroke-width: 1.0;"/><path d="M208,625.201 C208,635.692 208,649.463 208,660.818 " fill="none" style="stroke: #A80036; stroke-width: 1.0;"/><polygon fill="#A80036" points="208,665.8442,212,656.8442,208,660.8442,204,656.8442,208,665.8442" style="stroke: #A80036; stroke-width: 1.0;"/><path d="M249.097,700.1454 C285.918,714.6105 337.771,734.9816 362.22,744.5864 " fill="none" style="stroke: #A80036; stroke-width: 1.0;"/><polygon fill="#A80036" points="367.006,746.4665,360.0923,739.4522,362.3524,744.638,357.1666,746.898,367.006,746.4665" style="stroke: #A80036; stroke-width: 1.0;"/><path d="M355.962,159.038 C369.369,162.565 394.508,171.106 408,188 C427.785,212.774 433.273,250.23 434.681,273.621 " fill="none" style="stroke: #A80036; stroke-width: 1.0;"/><polygon fill="#A80036" points="434.935,278.675,438.4774,269.4853,434.6836,273.6813,430.4875,269.8875,434.935,278.675" style="stroke: #A80036; stroke-width: 1.0;"/><text fill="#000000" font-family="sans-serif" font-size="13" lengthAdjust="spacingAndGlyphs" textLength="75" x="420" y="201.0669">bearing box</text><path d="M435.759,313.099 C436.622,331.388 438.034,361.315 438.989,381.567 " fill="none" style="stroke: #A80036; stroke-width: 1.0;"/><polygon fill="#A80036" points="439.233,386.749,442.8043,377.5704,438.9973,381.7546,434.8131,377.9476,439.233,386.749" style="stroke: #A80036; stroke-width: 1.0;"/><path d="M440.289,421.258 C440.585,439.282 441,469.217 441,495 C441,495 441,495 441,684 C441,713.2069 408.288,734.1898 389.276,743.9184 " fill="none" style="stroke: #A80036; stroke-width: 1.0;"/><polygon fill="#A80036" points="384.766,746.1474,394.6066,745.7451,389.2483,743.9318,391.0616,738.5734,384.766,746.1474" style="stroke: #A80036; stroke-width: 1.0;"/></g></svg>