<?xml version="1.0" encoding="UTF-8" standalone="yes"?><svg xmlns="http://www.w3.org/2000/svg" xmlns:xlink="http://www.w3.org/1999/xlink" height="1035px" style="width:525px;height:1035px;" version="1.1" viewBox="0 0 525 1035" width="525px"><defs><filter height="300%" id="f1" width="300%" x="-1" y="-1"><feGaussianBlur result="blurOut" stdDeviation="2.0"/><feColorMatrix in="blurOut" result="blurOut2" type="matrix" values="0 0 0 0 0 0 0 0 0 0 0 0 0 0 0 0 0 0 .4 0"/><feOffset dx="4.0" dy="4.0" in="blurOut2" result="blurOut3"/><feBlend in="SourceGraphic" in2="blurOut3" mode="normal"/></filter></defs><g><ellipse cx="283.5" cy="18" fill="#000000" filter="url(#f1)" rx="10" ry="10" style="stroke: none; stroke-width: 1.0;"/><rect fill="#FEFECE" filter="url(#f1)" height="33.9688" rx="12.5" ry="12.5" style="stroke: #A80036; stroke-width: 1.5;" width="205" x="181" y="69"/><text fill="#000000" font-family="sans-serif" font-size="12" lengthAdjust="spacingAndGlyphs" textLength="185" x="191" y="90.1387">collect bearing box form shelf</text><rect fill="#FEFECE" filter="url(#f1)" height="33.9688" rx="12.5" ry="12.5" style="stroke: #A80036; stroke-width: 1.5;" width="108" x="229.5" y="144"/><text fill="#000000" font-family="sans-serif" font-size="12" lengthAdjust="spacingAndGlyphs" textLength="88" x="239.5" y="165.1387">quantify order</text><polygon fill="#FEFECE" filter="url(#f1)" points="283.5,219,295.5,231,283.5,243,271.5,231,283.5,219" style="stroke: #A80036; stroke-width: 1.5;"/><rect fill="#FEFECE" filter="url(#f1)" height="33.9688" rx="12.5" ry="12.5" style="stroke: #A80036; stroke-width: 1.5;" width="179" x="74" y="300"/><text fill="#000000" font-family="sans-serif" font-size="12" lengthAdjust="spacingAndGlyphs" textLength="159" x="84" y="321.1387">collect bearing form shelf</text><rect fill="#FEFECE" filter="url(#f1)" height="33.9688" rx="12.5" ry="12.5" style="stroke: #A80036; stroke-width: 1.5;" width="240" x="62.5" y="408"/><text fill="#000000" font-family="sans-serif" font-size="12" lengthAdjust="spacingAndGlyphs" textLength="220" x="72.5" y="429.1387">collect assembly aid tray from shelf</text><rect fill="#FEFECE" filter="url(#f1)" height="33.9688" rx="12.5" ry="12.5" style="stroke: #A80036; stroke-width: 1.5;" width="359" x="6" y="483"/><text fill="#000000" font-family="sans-serif" font-size="12" lengthAdjust="spacingAndGlyphs" textLength="339" x="16" y="504.1387">merge bearing and bearing box into assembly aid tray</text><rect fill="#FEFECE" filter="url(#f1)" height="33.9688" rx="12.5" ry="12.5" style="stroke: #A80036; stroke-width: 1.5;" width="248" x="77.5" y="558"/><text fill="#000000" font-family="sans-serif" font-size="12" lengthAdjust="spacingAndGlyphs" textLength="228" x="87.5" y="579.1387">load aid tray to force fitting machine</text><rect fill="#FEFECE" filter="url(#f1)" height="33.9688" rx="12.5" ry="12.5" style="stroke: #A80036; stroke-width: 1.5;" width="195" x="115" y="633"/><text fill="#000000" font-family="sans-serif" font-size="12" lengthAdjust="spacingAndGlyphs" textLength="175" x="125" y="654.1387">trigger force fitting machine</text><rect fill="#FEFECE" filter="url(#f1)" height="33.9688" rx="12.5" ry="12.5" style="stroke: #A80036; stroke-width: 1.5;" width="173" x="129" y="708"/><text fill="#000000" font-family="sans-serif" font-size="12" lengthAdjust="spacingAndGlyphs" textLength="153" x="139" y="729.1387">examine quality of fitting</text><rect fill="#FEFECE" filter="url(#f1)" height="33.9688" rx="12.5" ry="12.5" style="stroke: #A80036; stroke-width: 1.5;" width="300" x="65.5" y="783"/><text fill="#000000" font-family="sans-serif" font-size="12" lengthAdjust="spacingAndGlyphs" textLength="280" x="75.5" y="804.1387">remove fitted bearing from assembly aid tray</text><rect fill="#FEFECE" filter="url(#f1)" height="33.9688" rx="12.5" ry="12.5" style="stroke: #A80036; stroke-width: 1.5;" width="300" x="65.5" y="858"/><text fill="#000000" font-family="sans-serif" font-size="12" lengthAdjust="spacingAndGlyphs" textLength="280" x="75.5" y="879.1387">put assembly aid tray back to inventory shelf</text><rect fill="#FEFECE" filter="url(#f1)" height="33.9688" rx="12.5" ry="12.5" style="stroke: #A80036; stroke-width: 1.5;" width="235" x="122" y="933"/><text fill="#000000" font-family="sans-serif" font-size="12" lengthAdjust="spacingAndGlyphs" textLength="215" x="132" y="954.1387">put fitted bearing into delivery box</text><ellipse cx="350.5" cy="1018" fill="none" filter="url(#f1)" rx="10" ry="10" style="stroke: #000000; stroke-width: 1.0;"/><ellipse cx="351" cy="1018.5" fill="#000000" rx="6" ry="6" style="stroke: none; stroke-width: 1.0;"/><rect fill="#FEFECE" filter="url(#f1)" height="33.9688" rx="12.5" ry="12.5" style="stroke: #A80036; stroke-width: 1.5;" width="224" x="292.5" y="354"/><text fill="#000000" font-family="sans-serif" font-size="12" lengthAdjust="spacingAndGlyphs" textLength="204" x="302.5" y="375.1387">put bearing box into delivery box</text><path d="M283.5,28.177 C283.5,37.269 283.5,51.527 283.5,63.485 " fill="none" style="stroke: #A80036; stroke-width: 1.0;"/><polygon fill="#A80036" points="283.5,68.791,287.5,59.791,283.5,63.791,279.5,59.791,283.5,68.791" style="stroke: #A80036; stroke-width: 1.0;"/><path d="M283.5,103.201 C283.5,113.692 283.5,127.463 283.5,138.818 " fill="none" style="stroke: #A80036; stroke-width: 1.0;"/><polygon fill="#A80036" points="283.5,143.844,287.5,134.844,283.5,138.844,279.5,134.844,283.5,143.844" style="stroke: #A80036; stroke-width: 1.0;"/><path d="M283.5,178.115 C283.5,188.916 283.5,203.082 283.5,213.883 " fill="none" style="stroke: #A80036; stroke-width: 1.0;"/><polygon fill="#A80036" points="283.5,218.885,287.5,209.885,283.5,213.885,279.5,209.885,283.5,218.885" style="stroke: #A80036; stroke-width: 1.0;"/><text fill="#000000" font-family="sans-serif" font-size="13" lengthAdjust="spacingAndGlyphs" textLength="0" x="282.675" y="207.8881"/><path d="M273.41,233.024 C246.881,235.944 176.261,245.269 162.5,263 C155.614,271.872 155.521,284.329 157.308,294.937 " fill="none" style="stroke: #A80036; stroke-width: 1.0;"/><polygon fill="#A80036" points="158.315,299.972,160.4734,290.3626,157.335,295.069,152.6285,291.9306,158.315,299.972" style="stroke: #A80036; stroke-width: 1.0;"/><text fill="#000000" font-family="sans-serif" font-size="13" lengthAdjust="spacingAndGlyphs" textLength="215" x="163.5" y="276.0669">force fitted bearing in bearing box</text><path d="M166.386,334.099 C169.678,352.466 175.074,382.57 178.704,402.825 " fill="none" style="stroke: #A80036; stroke-width: 1.0;"/><polygon fill="#A80036" points="179.587,407.749,181.935,398.1841,178.7041,402.8276,174.0607,399.5967,179.587,407.749" style="stroke: #A80036; stroke-width: 1.0;"/><path d="M183.166,442.201 C183.597,452.692 184.163,466.463 184.629,477.818 " fill="none" style="stroke: #A80036; stroke-width: 1.0;"/><polygon fill="#A80036" points="184.836,482.844,188.4649,473.6881,184.6317,477.8482,180.4716,474.0149,184.836,482.844" style="stroke: #A80036; stroke-width: 1.0;"/><path d="M189.051,517.201 C191.35,527.692 194.369,541.463 196.857,552.818 " fill="none" style="stroke: #A80036; stroke-width: 1.0;"/><polygon fill="#A80036" points="197.959,557.844,199.9377,548.196,196.8877,552.9601,192.1235,549.9101,197.959,557.844" style="stroke: #A80036; stroke-width: 1.0;"/><path d="M203.941,592.201 C205.522,602.692 207.597,616.463 209.308,627.818 " fill="none" style="stroke: #A80036; stroke-width: 1.0;"/><polygon fill="#A80036" points="210.066,632.844,212.679,623.3481,209.3203,627.8999,204.7685,624.5412,210.066,632.844" style="stroke: #A80036; stroke-width: 1.0;"/><path d="M213.166,667.201 C213.597,677.692 214.163,691.463 214.629,702.818 " fill="none" style="stroke: #A80036; stroke-width: 1.0;"/><polygon fill="#A80036" points="214.836,707.844,218.4649,698.6881,214.6317,702.8482,210.4716,699.0149,214.836,707.844" style="stroke: #A80036; stroke-width: 1.0;"/><path d="M215.5,742.201 C215.5,752.692 215.5,766.463 215.5,777.818 " fill="none" style="stroke: #A80036; stroke-width: 1.0;"/><polygon fill="#A80036" points="215.5,782.844,219.5,773.844,215.5,777.844,211.5,773.844,215.5,782.844" style="stroke: #A80036; stroke-width: 1.0;"/><path d="M215.5,817.201 C215.5,827.692 215.5,841.463 215.5,852.818 " fill="none" style="stroke: #A80036; stroke-width: 1.0;"/><polygon fill="#A80036" points="215.5,857.844,219.5,848.844,215.5,852.844,211.5,848.844,215.5,857.844" style="stroke: #A80036; stroke-width: 1.0;"/><path d="M220.826,892.201 C224.275,902.692 228.803,916.463 232.536,927.818 " fill="none" style="stroke: #A80036; stroke-width: 1.0;"/><polygon fill="#A80036" points="234.189,932.8442,235.1787,923.0452,232.6277,928.0942,227.5787,925.5432,234.189,932.8442" style="stroke: #A80036; stroke-width: 1.0;"/><path d="M266.654,967.1454 C289.182,980.5405 320.227,999 337.525,1009.2849 " fill="none" style="stroke: #A80036; stroke-width: 1.0;"/><polygon fill="#A80036" points="342.02,1011.9579,336.3289,1003.9198,337.7225,1009.4023,332.2399,1010.7958,342.02,1011.9579" style="stroke: #A80036; stroke-width: 1.0;"/><path d="M294.36,232.148 C314.48,233.041 357.585,237.957 380.5,263 C402.007,286.504 405.652,325.001 405.597,348.847 " fill="none" style="stroke: #A80036; stroke-width: 1.0;"/><polygon fill="#A80036" points="405.527,353.993,409.65,345.0487,405.5956,348.9935,401.6508,344.939,405.527,353.993" style="stroke: #A80036; stroke-width: 1.0;"/><text fill="#000000" font-family="sans-serif" font-size="13" lengthAdjust="spacingAndGlyphs" textLength="105" x="392.5" y="276.0669">only bearing box</text><path d="M402.186,388.22 C399.823,406.211 396.5,436.117 396.5,462 C396.5,462 396.5,462 396.5,951 C396.5,975.0491 375.69,996.6054 362.063,1008.1425 " fill="none" style="stroke: #A80036; stroke-width: 1.0;"/><polygon fill="#A80036" points="358.096,1011.393,367.5923,1008.7814,361.963,1008.2234,362.521,1002.5942,358.096,1011.393" style="stroke: #A80036; stroke-width: 1.0;"/></g></svg>